<svg width="25" height="25" viewBox="0 0 25 25" fill="none" xmlns="http://www.w3.org/2000/svg">
<rect width="25" height="25" rx="12.5" fill="#F5F3F0"/>
<path d="M17.5364 8.43594C17.4926 8.38738 17.4391 8.34853 17.3793 8.32189C17.3196 8.29525 17.2549 8.2814 17.1895 8.28125H7.81452C7.74911 8.2814 7.68445 8.29525 7.62471 8.32189C7.56497 8.34853 7.51147 8.38738 7.46764 8.43594C7.42319 8.48422 7.38938 8.54129 7.36838 8.60347C7.34739 8.66564 7.33969 8.73153 7.34577 8.79688L8.20827 17.3141C8.23995 17.6647 8.40198 17.9906 8.66235 18.2276C8.92272 18.4645 9.26248 18.5952 9.61452 18.5938H15.3942C15.7455 18.5953 16.0847 18.4653 16.3449 18.2293C16.6052 17.9933 16.7677 17.6685 16.8005 17.3188L17.6583 8.79688C17.6644 8.73153 17.6566 8.66564 17.6357 8.60347C17.6147 8.54129 17.5808 8.48422 17.5364 8.43594ZM15.863 17.2297C15.8524 17.3466 15.7984 17.4552 15.7116 17.5342C15.6248 17.6132 15.5116 17.6567 15.3942 17.6562H9.60983C9.49174 17.6566 9.37786 17.6124 9.29096 17.5325C9.20405 17.4525 9.15053 17.3427 9.14108 17.225L8.33483 9.21875H16.6692L15.863 17.2297Z" fill="#72716E"/>
<path d="M10.1562 7.34375H14.8438C14.9681 7.34375 15.0873 7.29436 15.1752 7.20646C15.2631 7.11855 15.3125 6.99932 15.3125 6.875C15.3125 6.75068 15.2631 6.63145 15.1752 6.54354C15.0873 6.45564 14.9681 6.40625 14.8438 6.40625H10.1562C10.0319 6.40625 9.9127 6.45564 9.82479 6.54354C9.73689 6.63145 9.6875 6.75068 9.6875 6.875C9.6875 6.99932 9.73689 7.11855 9.82479 7.20646C9.9127 7.29436 10.0319 7.34375 10.1562 7.34375Z" fill="#72716E"/>
<path d="M11.0938 15.7812C11.2181 15.7812 11.3373 15.7319 11.4252 15.644C11.5131 15.556 11.5625 15.4368 11.5625 15.3125V11.5625C11.5625 11.4382 11.5131 11.319 11.4252 11.231C11.3373 11.1431 11.2181 11.0938 11.0938 11.0938C10.9694 11.0938 10.8502 11.1431 10.7623 11.231C10.6744 11.319 10.625 11.4382 10.625 11.5625V15.3125C10.625 15.4368 10.6744 15.556 10.7623 15.644C10.8502 15.7319 10.9694 15.7812 11.0938 15.7812Z" fill="#72716E"/>
<path d="M13.9062 15.7812C14.0306 15.7812 14.1498 15.7319 14.2377 15.644C14.3256 15.556 14.375 15.4368 14.375 15.3125V11.5625C14.375 11.4382 14.3256 11.319 14.2377 11.231C14.1498 11.1431 14.0306 11.0938 13.9062 11.0938C13.7819 11.0938 13.6627 11.1431 13.5748 11.231C13.4869 11.319 13.4375 11.4382 13.4375 11.5625V15.3125C13.4375 15.4368 13.4869 15.556 13.5748 15.644C13.6627 15.7319 13.7819 15.7812 13.9062 15.7812Z" fill="#72716E"/>
</svg>
